:SAMPLES-PER-SECOND 30
:FULLY-SPECIFIED
:DEGREES
403
root  -36.583 34.2127 -3.70184 -168.108 15.4183 -173.092
RightUpLeg  -18.6137 -9.54121 8.14385
RightLeg  10.9856 -3.70603 -0.473267
RightFoot  7.64168 0.0654999 -0.392973
RightToes  -27.457 -0.126808 -0.233909
Spine  0.156233 -0.416829 0.937891
Spine1  0.277956 -0.891196 2.454
HEad  -28.7869 -4.5152 0.158819
LeftShoulder1  -1.94126e-019 -3.10601e-018 -2.51263e-017
LeftArm  -24.6497 17.1484 -75.7307
LeftForeArm  24.7349 -21.4668 -3.96635
LeftHand  -0.339849 2.2523 12.3827
RightShoulder  -4.96962e-017 0 -2.36833e-017
RightArm  -34.5764 -19.8791 76.9383
RightForeArm  70.5782 8.70851 1.4362
RightHand  -0.431441 -1.14544 -11.7295
LeftUpLeg  -13.1088 -5.34364 10.422
LeftLeg  28.8654 2.51416 1.17729
LeftFoot  -10.9309 -0.0563886 -0.427822
LeftToes  -17.1577 1.83942e-006 5.51297e-008
404
root  -36.323 34.3262 -3.82741 -168.434 11.2967 -173.721
RightUpLeg  -17.2936 -13.4051 8.34452
RightLeg  9.16634 -3.95023 -0.377358
RightFoot  7.5423 0.0671235 -0.397634
RightToes  -27.2746 -0.125611 -0.232584
Spine  0.167344 -0.532789 0.93651
Spine1  0.296248 -1.03932 2.41658
HEad  -26.7415 -5.45144 0.158627
LeftShoulder1  -1.94126e-019 -3.10601e-018 -2.51263e-017
LeftArm  -24.7898 17.087 -74.1976
LeftForeArm  27.5909 -19.8629 -3.64278
LeftHand  -0.351488 1.57077 10.5879
RightShoulder  -4.96962e-017 0 -2.36833e-017
RightArm  -30.4683 -17.7382 74.4887
RightForeArm  65.3372 11.2717 1.51272
RightHand  -0.457466 -1.17659 -12.5313
LeftUpLeg  -12.719 -5.85777 10.2288
LeftLeg  26.4404 5.07602 2.12176
LeftFoot  -9.76228 -0.0842554 -0.825066
LeftToes  -16.087 1.83942e-006 5.51297e-008
405
root  -36.0795 34.4075 -3.87064 -168.588 7.36843 -174.033
RightUpLeg  -16.0033 -17.3725 8.87182
RightLeg  6.86448 -3.73696 -0.206029
RightFoot  7.89169 0.0667875 -0.379277
RightToes  -27.3022 -0.125792 -0.232202
Spine  0.277761 -0.504739 1.14998
Spine1  0.523827 -0.93963 2.83293
HEad  -25.3598 -6.48692 -0.249011
LeftShoulder1  -1.94126e-019 -3.10601e-018 -2.51263e-017
LeftArm  -21.6048 16.6619 -73.2825
LeftForeArm  33.1414 -19.3441 -3.5354
LeftHand  -0.39224 1.03039 10.4188
RightShoulder  -4.96962e-017 0 -2.36833e-017
RightArm  -25.0147 -15.8541 71.1265
RightForeArm  56.8238 14.5814 1.16675
RightHand  -0.417691 -1.34964 -11.9048
LeftUpLeg  -12.9618 -6.30339 10.654
LeftLeg  24.8946 5.05823 1.95628
LeftFoot  -8.60712 -0.064405 -0.694311
LeftToes  -16.3261 1.83942e-006 5.51297e-008
406
root  -35.8413 34.4416 -3.87632 -168.73 3.94152 -174.016
RightUpLeg  -14.8938 -20.4342 9.62463
RightLeg  4.81705 -3.93478 -0.0763903
RightFoot  8.20522 0.0698475 -0.420191
RightToes  -27.1372 -0.124471 -0.231585
Spine  0.430816 -0.243135 1.49405
Spine1  0.847286 -0.394355 3.5036
HEad  -23.8202 -7.59627 -0.700234
LeftShoulder1  -1.94126e-019 -3.10601e-018 -2.51263e-017
LeftArm  -17.4568 16.5519 -72.8219
LeftForeArm  36.5775 -20.5601 -3.77177
LeftHand  -0.424408 0.758328 10.6427
RightShoulder  -4.96962e-017 0 -2.36833e-017
RightArm  -23.1194 -14.0327 67.2491
RightForeArm  51.3292 17.2525 1.24222
RightHand  -0.366152 -1.67459 -11.2927
LeftUpLeg  -13.5428 -7.94616 11.6977
LeftLeg  24.1793 3.64673 1.35853
LeftFoot  -7.88635 -0.0394705 -0.411095
LeftToes  -17.8655 1.83942e-006 5.51297e-008
407
root  -35.6277 34.4412 -3.87978 -169.005 1.03739 -174.064
RightUpLeg  -14.1816 -23.0886 10.1846
RightLeg  3.75375 -4.06247 -0.00368516
RightFoot  8.07736 0.0693927 -0.427328
RightToes  -26.8276 -0.122513 -0.229324
Spine  0.601161 0.115197 1.79456
Spine1  1.2078 0.350324 4.04834
HEad  -21.2361 -8.53736 -0.945495
LeftShoulder1  -1.94126e-019 -3.10601e-018 -2.51263e-017
LeftArm  -14.3387 16.9136 -72.5048
LeftForeArm  36.2039 -22.659 -4.15416
LeftHand  -0.429701 0.414021 10.0611
RightShoulder  -4.96962e-017 0 -2.36833e-017
RightArm  -23.3916 -11.7986 63.5352
RightForeArm  49.3419 18.3609 1.52169
RightHand  -0.34016 -2.03595 -11.5627
LeftUpLeg  -14.2493 -9.46965 12.5966
LeftLeg  24.1567 2.24584 0.834726
LeftFoot  -7.33958 -0.0222562 -0.185495
LeftToes  -19.8973 1.83942e-006 5.51297e-008
408
root  -35.4584 34.4429 -3.87567 -169.204 -0.979366 -174.331
RightUpLeg  -14.0552 -24.5887 10.3002
RightLeg  3.76926 -4.47015 -0.0053091
RightFoot  7.6273 0.0669752 -0.447411
RightToes  -26.8159 -0.120191 -0.226788
Spine  0.812841 0.553084 1.95957
Spine1  1.6498 1.26683 4.29691
HEad  -17.6652 -9.06319 -0.969713
LeftShoulder1  -1.94126e-019 -3.10601e-018 -2.51263e-017
LeftArm  -13.2567 17.5217 -72.49
LeftForeArm  33.6965 -24.6241 -4.45582
LeftHand  -0.408928 0.190649 9.18301
RightShoulder  -4.96962e-017 0 -2.36833e-017
RightArm  -24.5495 -9.18151 60.5046
RightForeArm  49.7724 18.5654 1.54093
RightHand  -0.307497 -2.5131 -12.0954
LeftUpLeg  -14.6928 -10.2766 13.0246
LeftLeg  23.9433 1.03203 0.37741
LeftFoot  -6.72225 -0.0102866 -0.0136427
LeftToes  -21.5862 1.83942e-006 5.51297e-008
409
root  -35.3449 34.4817 -3.84189 -169.126 -2.11409 -174.806
RightUpLeg  -14.2732 -24.8742 10.1004
RightLeg  3.93153 -5.25752 -0.021154
RightFoot  7.37182 0.0694344 -0.520756
RightToes  -26.5506 -0.117777 -0.224122
Spine  1.00834 0.964687 1.94295
Spine1  2.05253 2.11007 4.2453
HEad  -14.3721 -9.02233 -0.733559
LeftShoulder1  -1.94126e-019 -3.10601e-018 -2.51263e-017
LeftArm  -13.7348 18.6419 -72.8749
LeftForeArm  31.6728 -26.1249 -4.60666
LeftHand  -0.392821 0.214386 8.85999
RightShoulder  -4.96962e-017 0 -2.36833e-017
RightArm  -27.0727 -5.83792 58.5577
RightForeArm  51.9932 17.7087 1.29698
RightHand  -0.266091 -3.00487 -12.4936
LeftUpLeg  -14.8444 -10.5784 12.9096
LeftLeg  23.113 0.787404 0.27436
LeftFoot  -5.85492 -0.00660776 0.032292
LeftToes  -22.0513 1.83942e-006 5.51297e-008
410
root  -35.2576 34.5241 -3.78911 -168.901 -2.75865 -175.286
RightUpLeg  -14.7243 -24.8794 9.912
RightLeg  4.19845 -5.88577 -0.0510398
RightFoot  7.13277 0.0706248 -0.568461
RightToes  -26.049 -0.115545 -0.221477
Spine  1.12508 1.28899 1.85815
Spine1  2.29177 2.76324 4.09795
HEad  -11.2187 -8.89227 -0.373072
LeftShoulder1  -1.94126e-019 -3.10601e-018 -2.51263e-017
LeftArm  -14.5679 20.2724 -73.6664
LeftForeArm  30.1742 -27.166 -4.67691
LeftHand  -0.400812 0.464727 9.47584
RightShoulder  -4.96962e-017 0 -2.36833e-017
RightArm  -28.7665 -3.18507 57.3621
RightForeArm  52.8809 17.5473 1.2331
RightHand  -0.277517 -3.15985 -13.9598
LeftUpLeg  -14.9716 -9.85524 12.4991
LeftLeg  22.2549 1.33368 0.444826
LeftFoot  -4.82278 -0.00657178 0.00544986
LeftToes  -22.5237 1.83942e-006 5.51297e-008
411
root  -35.1992 34.5761 -3.7013 -168.494 -3.30045 -175.91
RightUpLeg  -15.3831 -24.8408 9.63567
RightLeg  4.37979 -6.48247 -0.0766595
RightFoot  6.96886 0.0720026 -0.615681
RightToes  -25.4325 -0.113767 -0.219002
Spine  1.2266 1.46139 1.6893
Spine1  2.49148 3.07392 3.83747
HEad  -8.66169 -9.11355 -0.0441953
LeftShoulder1  -1.94126e-019 -3.10601e-018 -2.51263e-017
LeftArm  -16.3975 21.9743 -75.0566
LeftForeArm  29.5449 -27.3507 -4.62001
LeftHand  -0.4192 0.55436 10.0867
RightShoulder  -4.96962e-017 0 -2.36833e-017
RightArm  -29.4062 -1.46827 56.8734
RightForeArm  51.3699 19.3755 1.63056
RightHand  -0.218257 -3.66148 -13.9225
LeftUpLeg  -15.1219 -9.11261 11.8824
LeftLeg  21.0558 1.96225 0.610739
LeftFoot  -3.65926 -0.00374475 0.00268906
LeftToes  -22.621 1.83942e-006 5.51297e-008
412
root  -35.1543 34.6241 -3.6211 -168.063 -4.06653 -176.513
RightUpLeg  -16.152 -25.3777 9.45183
RightLeg  4.69293 -6.69882 -0.115706
RightFoot  6.80959 0.0703832 -0.619009
RightToes  -25.1524 -0.112535 -0.216903
Spine  1.31862 1.46823 1.56902
Spine1  2.66404 3.06166 3.634
HEad  -7.02263 -9.45605 0.125352
LeftShoulder1  -1.94126e-019 -3.10601e-018 -2.51263e-017
LeftArm  -17.1482 23.2564 -76.5799
LeftForeArm  27.5333 -26.5843 -4.51454
LeftHand  -0.382751 1.06347 10.2389
RightShoulder  -4.96962e-017 0 -2.36833e-017
RightArm  -29.1237 -0.745995 56.984
RightForeArm  49.0404 22.6399 2.34754
RightHand  -0.220196 -3.58049 -13.424
LeftUpLeg  -15.3225 -8.29747 11.3176
LeftLeg  19.8111 2.08149 0.598911
LeftFoot  -2.51722 -0.00191551 0.0439106
LeftToes  -22.918 1.83942e-006 5.51297e-008
413
root  -35.1123 34.6586 -3.557 -167.593 -4.99497 -177.14
RightUpLeg  -16.9504 -26.2119 9.29101
RightLeg  5.03786 -6.74668 -0.157032
RightFoot  6.54981 0.0666659 -0.590157
RightToes  -25.0572 -0.111667 -0.215417
Spine  1.37191 1.38984 1.5148
Spine1  2.76275 2.90621 3.53077
HEad  -5.85547 -9.91626 -0.0360264
LeftShoulder1  -1.94126e-019 -3.10601e-018 -2.51263e-017
LeftArm  -18.3972 24.3683 -78.5585
LeftForeArm  27.2607 -24.8482 -4.22884
LeftHand  -0.366554 0.771923 9.20956
RightShoulder  -4.96962e-017 0 -2.36833e-017
RightArm  -27.1657 -1.15053 57.3725
RightForeArm  46.4369 27.4835 3.44169
RightHand  -0.175497 -3.82683 -12.1025
LeftUpLeg  -15.6417 -7.67715 10.796
LeftLeg  18.6984 1.85007 0.493497
LeftFoot  -1.43898 -0.000848449 0.0939323
LeftToes  -23.596 1.83942e-006 5.51297e-008
